# xmcd
#
# Track frame offsets:
#	150
#	16819
#	35926
#	55628
#	77554
#	97862
#	113201
#	129022
#	147174
#	167513
#	186518
#	204725
#	220170
#	236967
#	256420
#	277200
#	295815
#
# Disc length: 4118 seconds
#
# Revision: 0
# Processed by: cddbd v1.5.1PL2 Copyright (c) Steve Scherf et al.
# Submitted via: EasyCDDAExtractor 8.1.2.3
#
DISCID=f8101411
DTITLE=Ras Kass - Van Gogh
DYEAR=2001
DGENRE=Rap
TTITLE0=Hot Game
TTITLE1=Goldyn Chyld
TTITLE2=Back it Up
TTITLE3=Kiss U
TTITLE4=Kick Rocks
TTITLE5=4 Much
TTITLE6=What U Want
TTITLE7=Is This Love
TTITLE8=Sex (feat. Xzibit)
TTITLE9=NBA (feat. Xzibit and Saafir)
TTITLE10=One Night
TTITLE11=Ah-Ha
TTITLE12=Root of Evil
TTITLE13=Van Gogh
TTITLE14=TV Guide
TTITLE15=Understandable Smooth.mp3
TTITLE16=Jack Frost
EXTD=
EXTT0=
EXTT1=
EXTT2=
EXTT3=
EXTT4=
EXTT5=
EXTT6=
EXTT7=
EXTT8=
EXTT9=
EXTT10=
EXTT11=
EXTT12=
EXTT13=
EXTT14=
EXTT15=
EXTT16=
PLAYORDER=
